<svg id="Lager_1" data-name="Lager 1" xmlns="http://www.w3.org/2000/svg" viewBox="0 0 283.46 80.94"><defs><style>.cls-1{fill:#fff;}</style></defs><path class="cls-1" d="M40.3,41.77h0a.49.49,0,1,1-.49.49.49.49,0,0,1,.49-.49" transform="translate(-14.18 -16.23)"/><path class="cls-1" d="M41.28,41.13a3.94,3.94,0,0,0,0-1.12,1.2,1.2,0,0,1-.6.15,1.79,1.79,0,0,1,.27-.94,2.86,2.86,0,0,1-.65.14,2.73,2.73,0,0,1-.64-.14,1.9,1.9,0,0,1,.27.94,1.25,1.25,0,0,1-.61-.15,3.94,3.94,0,0,0,0,1.12,1.21,1.21,0,0,1,.61-.16,1.45,1.45,0,0,1-.25.82l.06,0a.7.7,0,0,1,.56-.28.72.72,0,0,1,.57.28l.05,0a1.38,1.38,0,0,1-.24-.82,1.16,1.16,0,0,1,.6.16" transform="translate(-14.18 -16.23)"/><polygon class="cls-1" points="26.13 26.71 21.32 30.45 21.32 32 22.67 32 22.67 30.45 25.45 30.45 25.45 32 26.8 32 26.8 30.45 29.58 30.45 29.58 32 30.93 32 30.93 30.45 26.13 26.71"/><polygon class="cls-1" points="31.64 31.16 31.64 32.71 28.87 32.71 28.87 31.16 27.51 31.16 27.51 32.71 24.74 32.71 24.74 31.16 23.38 31.16 23.38 32.71 20.61 32.71 20.61 31.16 19.25 31.16 19.25 32.71 19.25 34.04 33 34.04 33 32.71 33 31.16 31.64 31.16"/><path class="cls-1" d="M24.73,49.39a.58.58,0,1,1,.58.58.58.58,0,0,1-.58-.58" transform="translate(-14.18 -16.23)"/><polygon class="cls-1" points="11.42 36.14 11.42 34.09 10.84 34.09 10.84 36.14 7.06 40.98 19.72 40.98 19.72 36.14 11.42 36.14"/><path class="cls-1" d="M32.05,60.85H30.62V59.27a.73.73,0,0,1,1.43,0Zm-2.63,0H28V59.27a.73.73,0,0,1,1.43,0Zm-2.62,0H25.36V59.27a.74.74,0,0,1,1.44,0ZM23.52,62H33.89v-4.1H23.52Z" transform="translate(-14.18 -16.23)"/><path class="cls-1" d="M55.87,49.39a.58.58,0,1,0-.57.58.58.58,0,0,0,.57-.58" transform="translate(-14.18 -16.23)"/><polygon class="cls-1" points="40.83 36.14 40.83 34.09 41.41 34.09 41.41 36.14 45.19 40.98 32.53 40.98 32.53 36.14 40.83 36.14"/><path class="cls-1" d="M48.55,59.27a.73.73,0,0,1,1.43,0v1.58H48.55Zm2.63,0a.73.73,0,0,1,1.43,0v1.58H51.18Zm2.63,0a.73.73,0,0,1,1.43,0v1.58H53.81ZM46.71,62H57.08v-4.1H46.71Z" transform="translate(-14.18 -16.23)"/><path class="cls-1" d="M27.77,68.41l5.88-5.68H23s-3.59,1.25-3.59,4a2.76,2.76,0,0,0,.64,1.69Z" transform="translate(-14.18 -16.23)"/><path class="cls-1" d="M52.84,68.41,47,62.73H57.6s3.6,1.25,3.6,4a2.76,2.76,0,0,1-.65,1.69Z" transform="translate(-14.18 -16.23)"/><path class="cls-1" d="M49.52,68.42l-7-9.25L52,68.57a2.86,2.86,0,0,1-1.08.2,2.5,2.5,0,0,1-1.39-.35m-3.42,0-4.54-9.65,7.16,9.77a3,3,0,0,1-1.18.24,3.09,3.09,0,0,1-1.44-.36m-3.52,0-1.72-9.93,4.51,10.05a2.63,2.63,0,0,1-1.2.26,4.94,4.94,0,0,1-1.59-.38m-2.28.38a3.37,3.37,0,0,1-1.58-.29L40.3,58.2l1.58,10.28a3.37,3.37,0,0,1-1.58.29m-5.07-.26,4.52-10.05L38,68.39a4.94,4.94,0,0,1-1.58.38,2.64,2.64,0,0,1-1.21-.26m-3.35,0L39,58.76,34.5,68.41a3.07,3.07,0,0,1-1.43.36,3,3,0,0,1-1.19-.24m-3.27,0,9.48-9.4-7,9.25a2.58,2.58,0,0,1-1.4.35,2.86,2.86,0,0,1-1.08-.2" transform="translate(-14.18 -16.23)"/><path class="cls-1" d="M28.27,73H26.83V71.38a.74.74,0,0,1,1.44,0Zm-6.69-1.58a.73.73,0,0,1,1.43,0V73H21.58Zm2.63,0a.73.73,0,0,1,1.43,0V73H24.21Zm3.9-2.26H20.53V76.2h1V79H26V76.2h3.27V69.46a3.23,3.23,0,0,1-1.2-.34" transform="translate(-14.18 -16.23)"/><path class="cls-1" d="M52.33,71.38a.74.74,0,0,1,1.44,0V73H52.33ZM59,73H57.59V71.38a.74.74,0,0,1,1.44,0ZM56.4,73H55V71.38a.74.74,0,0,1,1.44,0Zm-5.11-3.5V76.2h3.27V79h4.53V76.2h1V69.12H52.49a3.23,3.23,0,0,1-1.2.34" transform="translate(-14.18 -16.23)"/><path class="cls-1" d="M48.67,74.53H46.76V71.82a1,1,0,0,1,1.91,0Zm-3.32,0H43v-2.9a1.21,1.21,0,0,1,2.36,0Zm-3.87,0H39.12v-2.9a1.21,1.21,0,0,1,2.36,0Zm-3.86,0H35.26v-2.9a1.21,1.21,0,0,1,2.36,0Zm-3.78,0H31.93V71.82a1,1,0,0,1,1.91,0Zm15.38-5.46a3.49,3.49,0,0,1-1.68.41,4,4,0,0,1-1.72-.41,3.28,3.28,0,0,1-1.65.41,5.3,5.3,0,0,1-1.84-.43,3.83,3.83,0,0,1-2,.43h0a3.81,3.81,0,0,1-2-.43,5.35,5.35,0,0,1-1.84.43,3.29,3.29,0,0,1-1.66-.41,4,4,0,0,1-1.71.41,3.5,3.5,0,0,1-1.69-.41,3.25,3.25,0,0,1-1.35.39V76.2h2.5V79h4.53V76.2h6.48V79h4.53V76.2h2.51V69.46a3.31,3.31,0,0,1-1.36-.39" transform="translate(-14.18 -16.23)"/><path class="cls-1" d="M38.39,53.82H37V52.24a.73.73,0,0,1,1.43,0Zm1.19-1.58a.74.74,0,0,1,1.44,0v1.58H39.58Zm2.63,0a.74.74,0,0,1,1.44,0v1.58H42.21Zm-3.09,3.51,1.18-1.18,1.18,1.18-.87.87L46,61.81V51H34.6V61.81L40,56.62Z" transform="translate(-14.18 -16.23)"/><path class="cls-1" d="M64.89,77.18H60.07V80H53.58V77.18H49.05V80H42.57V77.18H38V80H31.55V77.18H27V80H20.53V77.18H15.71V37.25H64.89Zm-.22-60.95V17H63.49v-.77H61.73V17H60.55v-.77H58.79v2.06h.79v3.15h-1.3v2.11H56V21.44h-1.3V18.29h.79V16.23H53.71V17H52.52v-.77H50.77V17H49.58v-.77H47.83v2.06h.79v3.15h-1.3v2.11H44.63V21.44h-1.3V18.29h.79V16.23H42.36V17H41.18v-.77H39.42V17H38.24v-.77H36.48v2.06h.79v3.15H36v2.11H33.48V21.44H32.17V18.29H33V16.23H31.21V17H30v-.77H28.27V17H27.08v-.77H25.33v2.06h.79v3.15h-1.3v2.11h-2.5V21.44H21V18.29h.79V16.23H20.06V17H18.87v-.77H17.12V17H15.93v-.77H14.18v2.06H15v5.26l3,3.24v5.09H16.5v4.91H15.25V84.06c0,3,1.48,4.71,4.68,5.47l16.78,4a4.35,4.35,0,0,1,3.37,3l.22.61.22-.61a4.37,4.37,0,0,1,3.37-3l16.78-4c3.2-.76,4.69-2.5,4.69-5.47V36.79H64.1V31.88H62.58V26.79l3.06-3.24V18.29h.79V16.23Z" transform="translate(-14.18 -16.23)"/><polygon class="cls-1" points="88.49 49.67 88.49 41.12 78.63 41.12 78.63 49.67 75.53 49.67 75.53 30.16 78.63 30.16 78.63 38.4 88.49 38.4 88.49 30.16 91.6 30.16 91.6 49.67 88.49 49.67"/><polygon class="cls-1" points="98.89 49.67 98.89 30.16 109.31 30.16 108.36 32.83 102 32.83 102 38.37 108.33 38.37 108.33 41.03 102 41.03 102 47.01 109.34 47.01 109.34 49.67 98.89 49.67"/><polygon class="cls-1" points="115.83 49.67 115.83 30.16 118.9 30.16 118.9 47.01 126.04 47.01 126.04 49.67 115.83 49.67"/><path class="cls-1" d="M150.38,66.2a10.36,10.36,0,0,1-5.78-1.68l1.31-2.35a7.72,7.72,0,0,0,4.35,1.46c1.59,0,3.46-.72,3.46-2.5,0-3-4.71-3.57-7.08-6.21a5,5,0,0,1-1.33-3.49c0-2.85,2.19-5.22,6.13-5.22a9.86,9.86,0,0,1,4.62,1.07l0,2.9a8.8,8.8,0,0,0-4.44-1.36c-1.69,0-3.08.71-3.08,2.24,0,3.86,8.52,3.75,8.52,9.72,0,3.29-2.89,5.42-6.65,5.42" transform="translate(-14.18 -16.23)"/><rect class="cls-1" x="149.05" y="30.16" width="3.11" height="19.51"/><path class="cls-1" d="M187.83,65.9l-9.18-12a28.3,28.3,0,0,1-2-2.81h-.06c.06.65.06,1.6.06,2.55V65.9h-3.08V46.39h3.14l8.82,11.55a22.17,22.17,0,0,1,2,2.94h.06c0-.81-.06-1.78-.06-2.74V46.39h3.11V65.9Z" transform="translate(-14.18 -16.23)"/><path class="cls-1" d="M206.19,66.2c-5.95,0-9.76-4.18-9.76-9.8,0-5.9,4.22-10.19,10.59-10.19a14.42,14.42,0,0,1,5.66,1.1l0,3a11.83,11.83,0,0,0-5.42-1.45c-5.07,0-7.46,3.2-7.46,7.25,0,4.38,2.75,7.46,7.22,7.46a7,7,0,0,0,3.29-.65V56.19h3.1v8.29a15.76,15.76,0,0,1-7.19,1.72" transform="translate(-14.18 -16.23)"/><path class="cls-1" d="M226.12,65.9h-5.74V46.39h5.92c3.73,0,5.45,2.49,5.45,4.8a4.38,4.38,0,0,1-2.49,4.15v0A4.81,4.81,0,0,1,233,60.1c0,2.72-1.87,5.8-6.87,5.8m-2.63-16.81v5.53h2.22a2.8,2.8,0,0,0,2.87-2.83c0-1.64-1-2.7-3.11-2.7Zm2.63,8.2h-2.63v5.94H226c2.52,0,3.79-1.24,3.79-3.1,0-1.66-1.37-2.84-3.65-2.84" transform="translate(-14.18 -16.23)"/><path class="cls-1" d="M240.37,49.06a10.35,10.35,0,0,1,14.47.2,10.11,10.11,0,0,1,2.45,6.93,10.07,10.07,0,0,1-2.8,7.28,9.76,9.76,0,0,1-7.05,2.73,9.36,9.36,0,0,1-9.85-9.89,10.17,10.17,0,0,1,2.78-7.25m7.07-.15c-3.93,0-6.57,2.78-6.57,7.35s2.64,7.3,6.57,7.3,6.55-2.78,6.55-7.3-2.46-7.35-6.55-7.35" transform="translate(-14.18 -16.23)"/><path class="cls-1" d="M273.23,65.9c-3.05-5-4.56-7.69-5.33-7.9h-1.8v7.9H263V46.39h4.86c4.88,0,6.75,2.46,6.75,5.45A5.49,5.49,0,0,1,270.93,57v0c.79.41,2.87,3.88,5.92,8.88Zm-5.35-16.81H266.1v6.48h1.84a3.41,3.41,0,0,0,3.49-3.4c0-1.69-1-3.08-3.55-3.08" transform="translate(-14.18 -16.23)"/><path class="cls-1" d="M290.44,66.2c-5.95,0-9.77-4.18-9.77-9.8,0-5.9,4.23-10.19,10.6-10.19a14.37,14.37,0,0,1,5.65,1.1l0,3a11.83,11.83,0,0,0-5.42-1.45c-5.07,0-7.47,3.2-7.47,7.25,0,4.38,2.76,7.46,7.23,7.46a7,7,0,0,0,3.28-.65V56.19h3.11v8.29a15.76,15.76,0,0,1-7.19,1.72" transform="translate(-14.18 -16.23)"/></svg>