<svg id="Layer_1" data-name="Layer 1" xmlns="http://www.w3.org/2000/svg" viewBox="0 0 130.66 37.06"><defs><style>.cls-1{fill:#181716;}.cls-2,.cls-5{fill:#fff;}.cls-3,.cls-4{fill:#d12a22;}.cls-3,.cls-5{stroke:#fff;stroke-width:0.05px;}.cls-6{fill:none;stroke:#181716;stroke-width:0.11px;}</style></defs><polygon class="cls-1" points="40.79 22.89 40.79 18.95 36.25 18.95 36.25 22.89 34.81 22.89 34.81 13.9 36.25 13.9 36.25 17.69 40.79 17.69 40.79 13.9 42.23 13.9 42.23 22.89 40.79 22.89"/><polygon class="cls-1" points="45.58 22.89 45.58 13.9 50.39 13.9 49.95 15.13 47.02 15.13 47.02 17.68 49.94 17.68 49.94 18.91 47.02 18.91 47.02 21.67 50.4 21.67 50.4 22.89 45.58 22.89"/><polygon class="cls-1" points="53.39 22.89 53.39 13.9 54.81 13.9 54.81 21.67 58.1 21.67 58.1 22.89 53.39 22.89"/><path class="cls-1" d="M84.46,40.84a4.8,4.8,0,0,1-2.66-.77L82.4,39a3.6,3.6,0,0,0,2,.67c.73,0,1.59-.33,1.59-1.15,0-1.38-2.17-1.65-3.26-2.87A2.28,2.28,0,0,1,82.13,34c0-1.31,1-2.4,2.82-2.4a4.57,4.57,0,0,1,2.13.49v1.34a4,4,0,0,0-2-.63c-.78,0-1.42.33-1.42,1,0,1.77,3.93,1.72,3.93,4.47,0,1.52-1.34,2.5-3.07,2.5" transform="translate(-21.68 -17.81)"/><rect class="cls-1" x="68.7" y="13.9" width="1.43" height="8.99"/><path class="cls-1" d="M101.73,40.71l-4.24-5.53a13.92,13.92,0,0,1-.9-1.3h0c0,.3,0,.74,0,1.18v5.65H95.17v-9h1.45L100.69,37a10.46,10.46,0,0,1,.94,1.35h0c0-.37,0-.82,0-1.26V31.71h1.43v9Z" transform="translate(-21.68 -17.81)"/><path class="cls-1" d="M110.19,40.84a4.3,4.3,0,0,1-4.51-4.51,4.59,4.59,0,0,1,4.89-4.7,6.62,6.62,0,0,1,2.61.51l0,1.38a5.29,5.29,0,0,0-2.49-.67,3.13,3.13,0,0,0-3.44,3.34,3.19,3.19,0,0,0,3.33,3.44,3.26,3.26,0,0,0,1.51-.3v-3.1h1.43v3.82a7.3,7.3,0,0,1-3.31.79" transform="translate(-21.68 -17.81)"/><path class="cls-1" d="M119.37,40.71h-2.64v-9h2.73A2.27,2.27,0,0,1,122,33.92a2,2,0,0,1-1.15,1.91v0A2.21,2.21,0,0,1,122.54,38c0,1.26-.86,2.68-3.17,2.68M118.16,33v2.55h1a1.3,1.3,0,0,0,1.33-1.31c0-.75-.45-1.24-1.44-1.24Zm1.21,3.78h-1.21v2.74h1.15c1.16,0,1.74-.57,1.74-1.44s-.63-1.3-1.68-1.3" transform="translate(-21.68 -17.81)"/><path class="cls-1" d="M125.94,32.94a4.77,4.77,0,0,1,6.67.1,5,5,0,0,1-.16,6.55,4.53,4.53,0,0,1-7.79-3.3,4.69,4.69,0,0,1,1.28-3.35m3.26-.07c-1.81,0-3,1.29-3,3.39s1.22,3.37,3,3.37,3-1.29,3-3.37-1.14-3.39-3-3.39" transform="translate(-21.68 -17.81)"/><path class="cls-1" d="M141.09,40.71c-1.41-2.32-2.1-3.55-2.46-3.65h-.83v3.65h-1.43v-9h2.23c2.26,0,3.12,1.14,3.12,2.52A2.54,2.54,0,0,1,140,36.6h0c.37.19,1.33,1.79,2.73,4.1ZM138.62,33h-.82v3h.85a1.57,1.57,0,0,0,1.61-1.56c0-.78-.48-1.42-1.64-1.42" transform="translate(-21.68 -17.81)"/><path class="cls-1" d="M149,40.84a4.3,4.3,0,0,1-4.51-4.51,4.59,4.59,0,0,1,4.89-4.7,6.62,6.62,0,0,1,2.61.51l0,1.38a5.29,5.29,0,0,0-2.49-.67,3.13,3.13,0,0,0-3.44,3.34,3.19,3.19,0,0,0,3.33,3.44,3.23,3.23,0,0,0,1.51-.3v-3.1h1.44v3.82a7.35,7.35,0,0,1-3.32.79" transform="translate(-21.68 -17.81)"/><path class="cls-2" d="M45.11,27.45H22.33c0,20.68,0,20.68,0,21.66a2.21,2.21,0,0,0,1.86,2.29c1.47.38,7,1.67,8,1.9a1.94,1.94,0,0,1,1.58,1.36h0a1.94,1.94,0,0,1,1.58-1.36c1-.23,6.48-1.52,7.95-1.9a2.2,2.2,0,0,0,1.85-2.29c0-1,0-1,0-21.66Z" transform="translate(-21.68 -17.81)"/><path class="cls-3" d="M30.68,39.23H25.75c-.5.19-1.68.75-1.68,1.85a1.21,1.21,0,0,0,.31.8H28Z" transform="translate(-21.68 -17.81)"/><polygon class="cls-3" points="11.94 18.55 12.04 18.65 12.04 18.65 12.14 18.55 14.69 21.04 14.69 15.99 9.39 15.99 9.39 21.04 11.94 18.55"/><path class="cls-3" d="M28.22,42.17H24.58v3.31H25v1.31h2V45.44h1.6V42.3A1,1,0,0,1,28.22,42.17Z" transform="translate(-21.68 -17.81)"/><path class="cls-3" d="M37.81,42.13a1.4,1.4,0,0,1-.78.23h0a1.51,1.51,0,0,1-.75-.17,1.79,1.79,0,0,1-.78.16,1.94,1.94,0,0,1-.8-.2,2.57,2.57,0,0,1-1.94,0,1.94,1.94,0,0,1-.8.2,1.79,1.79,0,0,1-.78-.16,1.52,1.52,0,0,1-.76.17,1.4,1.4,0,0,1-.78-.23,2.61,2.61,0,0,1-.67.16v3.15h1.15v1.31h2V45.51h3.1v1.24h2.05V45.44h1.17V42.29A2.61,2.61,0,0,1,37.81,42.13Z" transform="translate(-21.68 -17.81)"/><path class="cls-3" d="M41.69,39.23H36.76l2.72,2.65h3.58a1.16,1.16,0,0,0,.31-.8C43.37,40,42.19,39.42,41.69,39.23Z" transform="translate(-21.68 -17.81)"/><path class="cls-3" d="M38.77,42.3v3.14h1.58v1.35h2V45.48h.49V42.17H39.22A1,1,0,0,1,38.77,42.3Z" transform="translate(-21.68 -17.81)"/><path class="cls-3" d="M42.78,45.88v1.31H40V45.84H37.71v1.32H34.86V45.92h-2.3v1.24H29.71V45.84H27.47v1.35H24.64V45.88H22.33v3.23a2.21,2.21,0,0,0,1.86,2.29c1.47.38,7,1.67,7.94,1.9a2,2,0,0,1,1.59,1.36,2.07,2.07,0,0,1,1.59-1.36c1-.23,6.48-1.52,7.94-1.9a2.2,2.2,0,0,0,1.86-2.29V45.88Z" transform="translate(-21.68 -17.81)"/><polygon class="cls-3" points="9.93 14.11 9.93 14.83 10.43 14.83 10.43 14.05 11.72 14.05 11.72 14.83 12.36 14.83 12.36 14.05 13.65 14.05 13.65 14.83 14.15 14.83 14.15 14.11 14.41 14.11 12.04 12.28 12.04 12.28 12.04 12.28 9.68 14.11 9.93 14.11"/><path class="cls-4" d="M33.72,30a.21.21,0,0,0,.21-.21.2.2,0,0,0-.21-.2.21.21,0,1,0,0,.41" transform="translate(-21.68 -17.81)"/><path class="cls-4" d="M34.11,28.8a.61.61,0,0,1-.14,0h-.08a.61.61,0,0,0,0-.14.74.74,0,0,1,.06-.18l.06-.11-.12,0-.18,0-.18,0-.12,0,.06.11a.74.74,0,0,1,.06.18.61.61,0,0,0,0,.14h-.08a.62.62,0,0,1-.14,0l-.07,0V29c0,.07,0,.2,0,.2v.08l.07,0,.11-.05.08,0v.09c0,.05-.07.23-.07.23l0,.08h0a.31.31,0,0,1,.25-.13.3.3,0,0,1,.25.13h0l0-.08s-.06-.18-.07-.23V29.2l.08,0,.11.05.07,0v-.08s0-.13,0-.2v-.25l-.07,0Z" transform="translate(-21.68 -17.81)"/><path class="cls-4" d="M26.81,32.7a.27.27,0,1,1-.27.27.27.27,0,0,1,.27-.27" transform="translate(-21.68 -17.81)"/><polygon class="cls-4" points="5.26 15.58 5 15.58 5 16.48 5.26 16.48 5.26 15.58 5.26 15.58"/><path class="cls-4" d="M40.63,32.7a.27.27,0,1,1,0,.53.27.27,0,0,1,0-.53" transform="translate(-21.68 -17.81)"/><polygon class="cls-4" points="19.09 15.58 18.82 15.58 18.82 16.48 19.09 16.48 19.09 15.58 19.09 15.58"/><polygon class="cls-4" points="23.28 0 23.28 0.36 22.73 0.36 22.73 0 21.92 0 21.92 0.36 21.37 0.36 21.37 0 20.56 0 20.56 0.95 20.93 0.95 20.93 2.4 20.33 2.4 20.33 3.33 19.18 3.33 19.18 2.4 18.58 2.4 18.58 0.95 18.94 0.95 18.94 0 18.14 0 18.14 0.36 17.59 0.36 17.59 0 16.78 0 16.78 0.36 16.23 0.36 16.23 0 15.42 0 15.42 0.95 15.79 0.95 15.79 2.4 15.19 2.4 15.19 3.33 14.04 3.33 14.04 2.4 13.44 2.4 13.44 0.95 13.8 0.95 13.8 0 13 0 13 0.36 12.45 0.36 12.45 0 11.64 0 11.64 0.36 11.09 0.36 11.09 0 10.28 0 10.28 0.95 10.65 0.95 10.65 2.4 10.05 2.4 10.05 3.33 8.89 3.33 8.89 2.4 8.29 2.4 8.29 0.95 8.66 0.95 8.66 0 7.86 0 7.86 0.36 7.3 0.36 7.3 0 6.5 0 6.5 0.36 5.95 0.36 5.95 0 5.14 0 5.14 0.95 5.51 0.95 5.51 2.4 4.91 2.4 4.91 3.33 3.75 3.33 3.75 2.4 3.15 2.4 3.15 0.95 3.52 0.95 3.52 0 2.71 0 2.71 0.36 2.17 0.36 2.17 0 1.36 0 1.36 0.36 0.81 0.36 0.81 0 0 0 0 0.95 0.36 0.95 0.36 3.37 1.77 4.87 1.77 7.21 1.07 7.21 1.07 9.63 23.01 9.63 23.01 7.21 22.31 7.21 22.31 4.87 23.72 3.37 23.72 0.95 24.08 0.95 24.08 0 23.28 0 23.28 0"/><rect class="cls-3" x="14.98" y="19.2" width="4.82" height="1.93"/><polygon class="cls-3" points="14.98 16.66 14.98 18.91 20.85 18.91 19.16 16.66 14.98 16.66"/><polygon class="cls-3" points="9.11 16.66 4.92 16.66 3.24 18.91 9.11 18.91 9.11 16.66"/><rect class="cls-3" x="4.29" y="19.2" width="4.82" height="1.93"/><path class="cls-2" d="M30.74,44.68h-.87V43.44a.46.46,0,0,1,.87,0v1.24Z" transform="translate(-21.68 -17.81)"/><path class="cls-2" d="M34.26,44.68H33.18V43.31a.57.57,0,0,1,1.08,0v1.37Z" transform="translate(-21.68 -17.81)"/><path class="cls-2" d="M32.48,44.68H31.4V43.31a.57.57,0,0,1,1.08,0v1.37Z" transform="translate(-21.68 -17.81)"/><path class="cls-2" d="M36.7,44.68h.87V43.44a.46.46,0,0,0-.87,0v1.24Z" transform="translate(-21.68 -17.81)"/><path class="cls-2" d="M35,44.68H36V43.31a.57.57,0,0,0-1.08,0v1.37Z" transform="translate(-21.68 -17.81)"/><path class="cls-5" d="M25.74,43.93h-.61v-.71a.32.32,0,0,1,.61,0v.71Z" transform="translate(-21.68 -17.81)"/><path class="cls-5" d="M27,43.93h-.61v-.71a.32.32,0,0,1,.61,0v.71Z" transform="translate(-21.68 -17.81)"/><path class="cls-5" d="M28.17,43.93h-.61v-.71a.32.32,0,0,1,.61,0v.71Z" transform="translate(-21.68 -17.81)"/><path class="cls-5" d="M39.88,43.93h-.61v-.71a.32.32,0,0,1,.61,0v.71Z" transform="translate(-21.68 -17.81)"/><path class="cls-5" d="M41.1,43.93h-.62v-.71a.33.33,0,0,1,.62,0v.71Z" transform="translate(-21.68 -17.81)"/><path class="cls-5" d="M42.31,43.93H41.7v-.71a.32.32,0,0,1,.61,0v.71Z" transform="translate(-21.68 -17.81)"/><path class="cls-5" d="M27.49,38.35h-.61v-.71a.32.32,0,0,1,.61,0v.71Z" transform="translate(-21.68 -17.81)"/><path class="cls-5" d="M28.7,38.35h-.61v-.71a.32.32,0,0,1,.61,0v.71Z" transform="translate(-21.68 -17.81)"/><path class="cls-5" d="M29.91,38.35H29.3v-.71a.32.32,0,0,1,.61,0v.71Z" transform="translate(-21.68 -17.81)"/><path class="cls-5" d="M38.14,38.35h-.61v-.71a.32.32,0,0,1,.61,0v.71Z" transform="translate(-21.68 -17.81)"/><path class="cls-5" d="M39.35,38.35h-.61v-.71a.32.32,0,0,1,.61,0v.71Z" transform="translate(-21.68 -17.81)"/><path class="cls-5" d="M40.56,38.35H40v-.71a.32.32,0,0,1,.61,0v.71Z" transform="translate(-21.68 -17.81)"/><path class="cls-5" d="M32.81,35.09H32.2v-.71a.32.32,0,0,1,.61,0v.71Z" transform="translate(-21.68 -17.81)"/><path class="cls-5" d="M34,35.09h-.62v-.71a.33.33,0,0,1,.62,0v.71Z" transform="translate(-21.68 -17.81)"/><path class="cls-5" d="M35.24,35.09h-.61v-.71a.32.32,0,0,1,.61,0v.71Z" transform="translate(-21.68 -17.81)"/><path class="cls-3" d="M29.91,42a1.12,1.12,0,0,0,.5.11h0a1.09,1.09,0,0,0,.66-.16h0l0,0,2.16-4.64L29.89,42Z" transform="translate(-21.68 -17.81)"/><path class="cls-3" d="M31.41,42a1.43,1.43,0,0,0,.54.09h0a1.56,1.56,0,0,0,.73-.2h0l.83-4.73L31.38,42Z" transform="translate(-21.68 -17.81)"/><path class="cls-3" d="M33,42a2.19,2.19,0,0,0,.72.1h0a1.77,1.77,0,0,0,.75-.12h0L33.72,37,33,41.93l0,0Z" transform="translate(-21.68 -17.81)"/><path class="cls-3" d="M28.36,41.92a.94.94,0,0,0,.41.1h0a2.49,2.49,0,0,0,.75-.16h0l.08,0h0l3.27-4.41-4.54,4.49Z" transform="translate(-21.68 -17.81)"/><path class="cls-3" d="M37.52,42h0l-3.38-4.71,2.17,4.65,0,0h0a1.09,1.09,0,0,0,.66.16h0a1,1,0,0,0,.49-.11Z" transform="translate(-21.68 -17.81)"/><path class="cls-3" d="M36,42h0l-2.14-4.85.84,4.73h0a1.56,1.56,0,0,0,.73.2h0A1.43,1.43,0,0,0,36,42Z" transform="translate(-21.68 -17.81)"/><path class="cls-3" d="M39.08,41.92h0l-4.55-4.5,3.28,4.42h0l.07,0h0a2.64,2.64,0,0,0,.76.16h0a.94.94,0,0,0,.41-.1Z" transform="translate(-21.68 -17.81)"/><polygon class="cls-2" points="12.58 18.18 12.04 18.72 11.5 18.18 12.04 17.64 12.58 18.18 12.58 18.18"/><polygon class="cls-4" points="8.87 15.69 15.21 15.69 15.21 14.41 14.45 14.41 14.45 15.13 13.36 15.13 13.36 14.35 12.66 14.35 12.66 15.13 11.43 15.13 11.42 14.35 10.73 14.35 10.73 15.13 9.63 15.13 9.63 14.41 8.87 14.41 8.87 15.69 8.87 15.69"/><path class="cls-6" d="M45.11,27.45H22.33c0,20.68,0,20.68,0,21.66a2.2,2.2,0,0,0,1.85,2.29c1.47.38,7,1.67,8,1.9a2.12,2.12,0,0,1,1.59,1.36A2.11,2.11,0,0,1,35.3,53.3c1-.23,6.48-1.52,8-1.9a2.21,2.21,0,0,0,1.86-2.29c0-1,0-1,0-21.66Z" transform="translate(-21.68 -17.81)"/></svg>